<svg width="130" height="40" viewBox="0 0 130 40" fill="none" xmlns="http://www.w3.org/2000/svg">
<path d="M0 12.2468V25.8974C0 27.0665 1.41344 27.652 2.24008 26.8253L2.84938 26.216C3.36183 25.7036 3.36183 24.8727 2.84938 24.3603L1.69976 23.2106C1.38685 22.8977 1.38685 22.3904 1.69976 22.0775C2.01268 21.7646 2.52002 21.7646 2.83294 22.0775L6.23247 25.477C6.54539 25.7899 7.05273 25.7899 7.36564 25.477C7.67856 25.1641 7.67856 24.6567 7.36565 24.3438L2.07749 19.0557C1.76457 18.7427 1.76457 18.2354 2.07749 17.9225C2.39041 17.6096 2.89775 17.6096 3.21067 17.9225L13.787 28.4988C14.0999 28.8117 14.6072 28.8117 14.9202 28.4988C15.2331 28.1859 15.2331 27.6785 14.9202 27.3656L5.09929 17.5448C4.78637 17.2318 4.78637 16.7245 5.09929 16.4116C5.41221 16.0987 5.91955 16.0987 6.23247 16.4116L12.6538 22.8329C12.9667 23.1458 13.4741 23.1458 13.787 22.8329C14.0999 22.52 14.0999 22.0127 13.787 21.6997L8.49882 16.4116C8.1859 16.0987 8.1859 15.5913 8.49882 15.2784C8.81174 14.9655 9.31908 14.9655 9.632 15.2784L16.4311 22.0775C16.744 22.3904 17.2513 22.3904 17.5642 22.0775C17.8771 21.7646 17.8771 21.2572 17.5642 20.9443L13.7705 17.1506C13.2581 16.6381 13.2581 15.8073 13.7705 15.2949L15.8907 13.1747C16.7174 12.348 16.1319 10.9346 14.9629 10.9346H1.31221C0.587496 10.9346 0 11.5221 0 12.2468Z" fill="url(#paint0_linear_293_369)"/>
<path d="M26.1309 13.0608H37.0238L35.9455 16.0507H29.8719V18.5944H35.9455V21.5174H29.8719L29.8499 26.984H26.1309V13.0608Z" fill="#7120D8"/>
<path d="M53.4612 23.9941H59.4028L59.4248 21.4504H54.3414C53.2558 21.4504 52.603 20.9819 52.3829 20.0447C52.3829 19.8067 52.3829 19.5538 52.3829 19.2861C52.3976 19.0183 52.4049 18.7654 52.4049 18.5274H52.3829V14.6673C52.5003 14.0872 52.7203 13.6707 53.0431 13.4178C53.3658 13.1649 53.7986 13.0385 54.3414 13.0385H63.3199C63.0998 13.693 62.9018 14.2657 62.7257 14.7566C62.5497 15.2326 62.3956 15.664 62.2636 16.0507V16.0284H60.063V16.0507H56.322V18.5274L61.3833 18.5051C61.9262 18.5051 62.3589 18.6316 62.6817 18.8844C63.0045 19.1373 63.2245 19.5538 63.3419 20.134C63.3419 20.1637 63.3345 20.2009 63.3199 20.2455C63.3199 20.2753 63.3199 20.305 63.3199 20.3348H63.3639V25.5337C63.1438 26.4708 62.491 26.9394 61.4054 26.9394L58.5666 26.984V27.0063L52.3829 27.051L53.4612 23.9941Z" fill="#7120D8"/>
<path d="M64.8878 13.0385H75.7808V15.9615H72.1718L72.1498 26.984H68.4528V15.9615H64.8878V13.0385Z" fill="#7120D8"/>
<path fill-rule="evenodd" clip-rule="evenodd" d="M41.9942 12.9492L36.9768 26.9617H40.7178L43.9967 17.7019L45.9993 23.9941L46.9897 26.9617H50.7306L45.9993 12.9492H41.9942Z" fill="#7120D8"/>
<path d="M80.734 24.0474L80.7347 24.3748H81.0621H86.9415L87.7893 26.7229H77.6269V13.3894H80.7125L80.734 24.0474ZM98.6997 13.2773L103.237 26.7005H96.2304V24.3748H98.9351H99.3839L99.2476 23.9472L97.2332 17.6249L96.9372 16.696L96.6114 17.6149L93.3905 26.7005H90.3251L95.1371 13.2773H98.6997ZM112.901 26.7229V26.6557H112.835V15.9982V15.6702H112.507H109.164H108.837L108.836 15.9969L108.793 26.7229H105.707V13.3894H116.008L115.987 26.7229H112.901ZM121.811 18.9494H127.592V21.2302H121.811H121.483V21.5582V24.0244V24.3534L121.812 24.3524L128.543 24.3314L127.71 26.7229H118.376V13.3894H128.538L127.69 15.7375H121.811H121.483V16.0655V18.6213V18.9494H121.811Z" stroke="#2AFFB2" stroke-width="0.656105"/>
<defs>
<linearGradient id="paint0_linear_293_369" x1="0" y1="10.9346" x2="18.1308" y2="29.0654" gradientUnits="userSpaceOnUse">
<stop stop-color="#7120D8"/>
<stop offset="0.640625" stop-color="#2AFFB2"/>
</linearGradient>
</defs>
</svg>
